<svg width="106" height="110" viewBox="0 0 106 110" fill="none" xmlns="http://www.w3.org/2000/svg">
<path d="M39 61.6V83.4H37.4V64.1C36.6 65.5 35.8 66.6 35.1 67.4C34.4 68.2 33.8 68.8 33.2 69.3L32 68.2C32.5 67.8 33.1 67.2 33.8 66.3C34.5 65.4 35.3 64.4 36 63.1C36.8 61.9 37.4 60.5 38.1 59C38.7 57.5 39.2 55.9 39.5 54.2L41.1 54.7C40.7 56.6 40.2 58.1 39.7 59.2C39.5 60.4 39.1 61.2 39 61.6ZM52.6 66.1V83.4H51V66.4C50.1 68.4 49.2 70.1 48.2 71.5C47.3 72.9 46.4 74.1 45.6 75C44.8 75.9 44.1 76.7 43.4 77.3C42.7 77.9 42.2 78.3 41.8 78.7L40.5 77.6C41 77.3 41.7 76.7 42.6 75.9C43.5 75.1 44.4 74.1 45.4 72.9C46.4 71.7 47.3 70.3 48.3 68.7C49.2 67.1 50 65.3 50.7 63.3H43.1V62.1H51.1V56.4L50.9 54.3L52.8 54.5C52.8 54.5 52.8 54.7 52.7 55.1C52.6 55.5 52.6 56 52.6 56.5V62.1H61.9V63.3H52.8C53.4 64.8 54.1 66.2 55 67.7C55.9 69.1 56.9 70.5 57.9 71.7C58.9 73 60 74.1 61 75C62.1 76 63 76.7 63.8 77.3L62.6 78.5C61.6 77.8 60.6 77 59.6 76C58.6 75 57.6 73.9 56.7 72.7C55.8 71.5 54.9 70.4 54.2 69.2C53.7 68.2 53.1 67.1 52.6 66.1Z" fill="white"/>
<path d="M69 57.6H81.4L81.2 53.8L83.2 54L83.1 57.6H95.5V64.2H94V58.9H70.5V64.2H69V57.6ZM86.8 73.9C87 74.7 87.1 75.5 87.1 76.3C87.1 77.1 87 78 86.9 78.7C86.8 79.5 86.5 80.2 86.3 80.9C86 81.6 85.7 82.1 85.2 82.5C84.8 82.8 84.4 83.1 83.8 83.2C83.2 83.3 82.6 83.4 82 83.5C81.4 83.5 80.9 83.5 80.5 83.5C80.1 83.5 79.8 83.5 79.8 83.5L78.7 82C79.2 82.1 79.8 82.1 80.3 82.2C80.9 82.2 81.4 82.2 81.9 82.2C82.4 82.2 82.9 82.1 83.3 81.9C83.7 81.8 84 81.6 84.3 81.3C84.8 80.7 85.1 79.9 85.3 79.1C85.5 78.3 85.6 77.5 85.6 76.8C85.6 76 85.6 75.4 85.5 74.9C85.4 74.4 85.4 74.1 85.4 74C83.2 76.5 80.9 78.6 78.4 80.1C75.9 81.6 73.2 82.7 70.2 83.4L69.2 82.2C70.8 81.9 72.3 81.3 73.8 80.7C75.3 80 76.7 79.3 78 78.4C79.3 77.5 80.6 76.6 81.7 75.6C82.8 74.6 83.9 73.5 84.8 72.5C84.8 72.4 84.7 72.2 84.6 71.9C84.5 71.6 84.3 71.3 84.2 71C84 70.7 83.9 70.4 83.7 70.1C83.5 69.8 83.4 69.6 83.3 69.5C82.3 70.6 81.2 71.6 80 72.4C78.9 73.3 77.7 74 76.6 74.7C75.5 75.4 74.4 75.9 73.5 76.3C72.5 76.7 71.6 77.1 70.9 77.3L69.9 76C70.4 75.8 71.1 75.6 72 75.2C72.9 74.9 73.9 74.4 75 73.8C76.1 73.2 77.3 72.4 78.6 71.5C79.8 70.6 81.1 69.5 82.3 68.2C81.9 67.6 81.5 67.2 81.1 66.9C80.8 66.6 80.4 66.3 80.1 66.1C79.2 66.9 78.3 67.6 77.5 68.2C76.7 68.8 75.9 69.3 75.1 69.7C74.3 70.1 73.6 70.5 72.8 70.8C72.1 71.1 71.3 71.4 70.6 71.6L69.6 70.4C70.5 70.1 71.4 69.8 72.4 69.4C73.4 69 74.3 68.5 75.3 67.9C76.2 67.3 77.1 66.7 77.9 66.1C78.7 65.4 79.3 64.7 79.8 64H72.4V62.7H92.2V64H81.7C81.6 64.3 81.4 64.6 81.1 64.9C82 65.7 82.7 66.4 83.3 67.1C83.9 67.8 84.4 68.4 84.7 68.9C85.1 69.4 85.3 69.9 85.5 70.2C85.7 70.5 85.8 70.7 85.8 70.7L91.5 65.9L92.6 67L86.7 71.9C86.7 71.9 86.8 72.1 87.1 72.5C87.3 72.9 87.7 73.3 88.1 73.9C88.5 74.5 89.1 75.1 89.7 75.8C90.3 76.5 91 77.2 91.7 77.9C92.4 78.6 93.2 79.3 93.9 79.9C94.7 80.5 95.5 81.1 96.3 81.5L95.1 82.8C94.2 82.2 93.4 81.6 92.5 80.8C91.6 80 90.8 79.2 90 78.4C89.2 77.6 88.6 76.8 88 76C87.4 75 87 74.4 86.8 73.9Z" fill="white"/>
<path d="M54.6 96.8C55.3 96.8 55.7 96.8 56 96.9C56.3 97 56.4 97.1 56.4 97.3C56.4 97.4 56.3 97.5 56.2 97.6C56.1 97.7 56 97.7 55.8 97.7C55.6 97.7 55.4 97.7 55.3 97.7C55.1 97.7 54.9 97.7 54.7 97.7C54.4 97.7 54 97.7 53.6 97.7C53.2 97.7 52.8 97.7 52.3 97.7H52.2V100.8C52.2 101 52.2 101.3 52.1 101.5C52.1 101.7 52 101.9 51.9 102C51.8 102.1 51.8 102.3 51.7 102.3C51.6 102.4 51.6 102.4 51.5 102.4C51.4 102.4 51.3 102.4 51.3 102.3C51.3 102.2 51.2 102 51.2 101.8V97.6C50.8 97.6 50.4 97.6 50 97.6C49.6 97.6 49.2 97.6 48.8 97.6V100.1C48.8 100.6 48.7 101 48.6 101.3C48.5 101.6 48.3 101.8 48.2 101.8C48.1 101.8 48 101.8 48 101.7C47.9 101.6 47.9 101.4 47.9 101.2V97.7C47.5 97.7 47.2 97.7 46.9 97.8C46.6 97.8 46.4 97.8 46.2 97.9C46 97.9 45.8 98 45.7 98C45.7 98 45.5 98 45.4 98C45.3 98 45.1 98 44.9 97.9C44.7 97.9 44.5 97.8 44.4 97.7C44.2 97.6 44.1 97.6 44 97.5C43.9 97.4 43.8 97.3 43.8 97.3C43.8 97.2 43.8 97.2 43.9 97.1C44 97 44 97 44.1 97C44.2 97 44.4 97 44.6 97.1C44.8 97.1 45.2 97.2 45.7 97.1C46.9 97.1 48 97.1 49.2 97C50.4 97 51.6 96.9 52.7 96.9C53 96.9 53.3 96.9 53.5 96.8C53.7 96.7 53.9 96.7 54 96.7C54.1 96.7 54.2 96.6 54.3 96.6C54.4 96.8 54.5 96.8 54.6 96.8ZM47.4 92C47.3 92 47.1 92 46.9 91.9C46.7 91.9 46.6 91.8 46.4 91.7C46.3 91.6 46.1 91.6 46 91.5C45.9 91.4 45.8 91.4 45.8 91.3C45.8 91.2 45.8 91.2 45.9 91.1C46 91 46 91 46.1 91C46.1 91 46.2 91 46.3 91C46.4 91 46.5 91 46.7 91.1C46.9 91.1 47 91.1 47.2 91.1C47.4 91.1 47.6 91.1 47.7 91.1L51.3 91C51.5 91 51.7 91 51.8 91C51.9 91 52.1 91 52.2 90.9C52.3 90.9 52.4 90.8 52.5 90.8C52.6 90.8 52.7 90.8 52.8 90.8C53.3 90.8 53.7 90.8 53.9 90.9C54.1 91 54.2 91.1 54.2 91.2C54.2 91.3 54.2 91.4 54.1 91.5C54 91.6 53.9 91.6 53.8 91.6C53.7 91.6 53.6 91.6 53.4 91.6C53.3 91.6 53.1 91.6 52.9 91.6C52.7 91.6 52.5 91.6 52.3 91.6C52 91.6 51.7 91.6 51.4 91.6C50.6 91.6 50 91.6 49.4 91.6C48.8 91.6 48.4 91.7 48.1 91.7C48 91.7 47.9 91.7 47.9 91.8C47.8 91.8 47.8 91.8 47.7 91.8C47.6 91.8 47.6 91.8 47.5 91.8C47.4 91.8 47.4 92 47.4 92ZM50.2 92.2C50.3 92.2 50.4 92.2 50.4 92.3C50.5 92.4 50.5 92.4 50.5 92.5C50.8 92.5 51.1 92.6 51.4 92.7C51.7 92.8 51.9 92.9 52.1 93.1C52.3 93.3 52.4 93.5 52.5 93.7C52.6 93.9 52.7 94.1 52.7 94.4C52.7 94.7 52.6 95 52.5 95.2C52.4 95.5 52.2 95.7 52 95.8C51.8 96 51.5 96.1 51.2 96.2C50.9 96.3 50.5 96.3 50.2 96.3C49.9 96.3 49.5 96.3 49.2 96.2C48.9 96.1 48.6 96 48.4 95.8C48.2 95.6 48 95.4 47.9 95.2C47.8 95 47.7 94.7 47.7 94.4C47.7 93.9 47.9 93.5 48.2 93.2C48.5 92.9 49 92.7 49.5 92.6C49.6 92.6 49.7 92.6 49.8 92.5C49.9 92.5 50 92.4 50.1 92.4C50.2 92.4 50.2 92.3 50.3 92.3C50.1 92.2 50.2 92.2 50.2 92.2ZM49.9 90.5C49.7 90.5 49.5 90.5 49.3 90.4C49.1 90.3 49 90.3 48.8 90.2C48.7 90.1 48.6 90 48.5 89.9C48.4 89.8 48.4 89.7 48.4 89.7C48.4 89.6 48.4 89.6 48.5 89.5C48.6 89.4 48.6 89.4 48.7 89.4C48.8 89.4 48.9 89.4 49.2 89.5C49.4 89.6 49.7 89.6 50.2 89.6L51.3 89.7C51.6 89.7 51.8 89.8 51.8 90C51.8 90.1 51.7 90.2 51.6 90.3C51.5 90.4 51.3 90.4 51 90.4L49.9 90.5ZM51.7 94.3C51.7 93.9 51.6 93.6 51.3 93.3C51 93.1 50.6 93 50.1 93C49.6 93 49.2 93.1 48.9 93.4C48.6 93.7 48.5 94 48.5 94.4C48.5 94.8 48.6 95.1 48.9 95.4C49.2 95.7 49.6 95.8 50.1 95.8C50.6 95.8 51 95.7 51.3 95.4C51.6 95.1 51.7 94.8 51.7 94.3Z" fill="white"/>
<path d="M66.3 98.6C66.3 98.4 66.4 98.3 66.5 98.1C66.6 98 66.8 97.9 67 97.9C67.2 97.9 67.4 98 67.6 98.1C67.8 98.2 67.8 98.4 67.8 98.7C67.8 98.9 67.8 99 67.7 99.2C67.7 99.4 67.6 99.5 67.5 99.7C67.4 100 67.2 100.2 67.1 100.4C66.9 100.6 66.7 100.8 66.5 101C66.4 101.1 66.4 101.1 66.3 101.1C66.2 101.1 66.2 101.1 66.1 101.1L66 101C66 100.9 66 100.9 66.1 100.8C66.3 100.6 66.4 100.4 66.6 100.1C66.7 99.9 66.8 99.6 66.8 99.4C66.8 99.3 66.8 99.2 66.7 99.2C66.7 99.1 66.6 99.1 66.5 99C66.3 98.9 66.3 98.8 66.3 98.6ZM66.3 93.4C66.3 93.2 66.4 93 66.5 92.9C66.6 92.8 66.8 92.7 67 92.7C67.2 92.7 67.4 92.8 67.5 92.9C67.6 93 67.7 93.2 67.7 93.4C67.7 93.6 67.6 93.8 67.5 94C67.4 94.1 67.2 94.2 67 94.2C66.8 94.2 66.6 94.1 66.5 94C66.4 93.8 66.3 93.6 66.3 93.4Z" fill="white"/>
<path d="M83.4 92C83.6 92 83.9 92 84 92.1C84.2 92.2 84.3 92.3 84.3 92.4C84.3 92.5 84.3 92.6 84.2 92.7C84.1 92.8 84 93 83.9 93.2C83.6 93.7 83.3 94.2 82.9 94.7C82.5 95.2 82.1 95.7 81.7 96.1C81.3 96.6 80.8 97 80.4 97.4C79.9 97.8 79.5 98.1 79 98.4C78.8 98.5 78.6 98.6 78.4 98.6C78.2 98.6 78.1 98.6 78.1 98.5C78 98.4 78.1 98.2 78.2 98.1C78.7 97.8 79.2 97.4 79.7 97C80.2 96.6 80.6 96.1 81 95.7C81.4 95.2 81.8 94.7 82.1 94.2C82.4 93.7 82.7 93.2 82.9 92.7C82.7 92.7 82.5 92.7 82.2 92.7C81.9 92.7 81.7 92.7 81.4 92.7C81.1 92.7 80.9 92.7 80.6 92.7C80.4 92.7 80.1 92.7 80 92.7C79.8 92.7 79.7 92.7 79.6 92.8C79.5 92.8 79.4 92.9 79.3 92.9C79.2 92.9 79.1 92.9 79 92.8C78.9 92.8 78.7 92.7 78.6 92.6C78.5 92.5 78.3 92.5 78.3 92.4C78.2 92.3 78.2 92.3 78.2 92.2C78.2 92.1 78.2 92.1 78.3 92C78.4 91.9 78.4 91.9 78.5 91.9C78.6 91.9 78.7 91.9 78.9 91.9C79.1 91.9 79.3 91.9 79.7 91.9C79.9 91.9 80.1 91.9 80.4 91.9C80.7 91.9 80.9 91.9 81.2 91.9C81.5 91.9 81.8 91.9 82 91.9C82.3 91.9 82.5 91.9 82.7 91.9C82.9 91.9 83 91.9 83.1 91.8C83.2 92 83.3 92 83.4 92ZM88.9 94.7C89.8 94.7 90.2 94.8 90.2 95.1C90.2 95.4 90 95.5 89.6 95.5C89.4 95.5 89.1 95.5 88.7 95.5C88.3 95.5 87.8 95.5 87.2 95.6V100.6C87.2 100.8 87.2 101.1 87.1 101.3C87 101.5 87 101.7 86.9 101.9C86.8 102.1 86.8 102.2 86.7 102.3C86.6 102.4 86.6 102.4 86.5 102.4C86.4 102.4 86.4 102.4 86.3 102.3C86.2 102.2 86.2 102.1 86.2 101.9V90.4C86.2 90.2 86.1 90.1 86 90.1L85.1 89.6C85 89.5 84.9 89.5 84.9 89.4C84.9 89.3 84.9 89.3 85 89.2C85.1 89.1 85.1 89.1 85.2 89.1C85.3 89.1 85.5 89.1 85.7 89.2C85.9 89.3 86.1 89.3 86.3 89.4C86.5 89.5 86.7 89.6 86.9 89.7C87.1 89.8 87.1 89.9 87.1 90C87.1 90.1 87.1 90.2 87.1 90.3C87.1 90.4 87.1 90.5 87.1 90.5V95.2C87.4 95.2 87.6 95.1 87.7 95.1C87.9 95.1 88 95 88.1 95C88.2 95 88.3 94.9 88.4 94.9C88.7 94.7 88.8 94.7 88.9 94.7Z" fill="white"/>
<path d="M105.2 109.5H103.7V31.6L52.9 2.69999L1.8 31.6V109.5H0.299999V30.7L52.9 0.899994L105.2 30.7V109.5Z" fill="white"/>
</svg>
